<svg width="640" height="500" version="1.1" xmlns="http://www.w3.org/2000/svg" desc="Created with imagetracer.js version 1.2.6"><path fill="rgb(0,0,0)" stroke="rgb(0,0,0)" stroke-width="1" opacity="0.16470588235294117" d="M 69.5 32 L 72 32.5 L 69.5 33 L 69.5 32 Z "></path><path fill="rgb(0,0,0)" stroke="rgb(0,0,0)" stroke-width="1" opacity="0.16470588235294117" d="M 165.5 32 L 169 32.5 L 165.5 33 L 165.5 32 Z "></path><path fill="rgb(0,0,0)" stroke="rgb(0,0,0)" stroke-width="1" opacity="0.16470588235294117" d="M 66.5 33 L 68 33.5 L 61 39.5 Q 57.7 43.2 59 51.5 L 65.5 60 L 69.5 62 L 151.5 62 L 153 63.5 L 166 125.5 L 165 125.5 L 157 85.5 L 154 77.5 L 152 64.5 L 150.5 63 L 68.5 63 L 60 56.5 Q 56.9 52.1 58 43.5 L 64.5 34 L 66.5 33 Z "></path><path fill="rgb(0,0,0)" stroke="rgb(0,0,0)" stroke-width="1" opacity="0.16470588235294117" d="M 172.5 34 L 178 38.5 L 181 45.5 L 188 82.5 L 191.5 92 L 563.5 92 L 573 99.5 Q 576 103.5 575 111.5 L 528.5 273 L 528 270.5 L 573 115.5 L 574 104.5 L 568.5 96 L 562.5 93 L 190 93 L 186 78.5 L 179 43.5 L 172.5 34 Z "></path><path fill="rgb(0,0,0)" stroke="rgb(0,0,0)" stroke-width="1" opacity="0.16470588235294117" d="M 197 123 L 538.5 123 L 539 125.5 L 529.5 157 L 529 154.5 L 538 124.5 L 198 124 L 204 153.5 L 203 153.5 L 197 123 Z "></path><path fill="rgb(0,0,0)" stroke="rgb(0,0,0)" stroke-width="1" opacity="0.16470588235294117" d="M 166.5 127 L 167 129.5 L 166 129.5 L 166.5 127 Z "></path><path fill="rgb(0,0,0)" stroke="rgb(0,0,0)" stroke-width="1" opacity="0.16470588235294117" d="M 167.5 131 L 168 134.5 L 167 134.5 L 167.5 131 Z "></path><path fill="rgb(0,0,0)" stroke="rgb(0,0,0)" stroke-width="1" opacity="0.16470588235294117" d="M 168.5 136 L 169 138.5 L 168 138.5 L 168.5 136 Z "></path><path fill="rgb(0,0,0)" stroke="rgb(0,0,0)" stroke-width="1" opacity="0.16470588235294117" d="M 169.5 141 L 170 143.5 L 169 143.5 L 169.5 141 Z "></path><path fill="rgb(0,0,0)" stroke="rgb(0,0,0)" stroke-width="1" opacity="0.16470588235294117" d="M 170.5 145 L 171 147.5 L 170 147.5 L 170.5 145 Z "></path><path fill="rgb(0,0,0)" stroke="rgb(0,0,0)" stroke-width="1" opacity="0.16470588235294117" d="M 171.5 149 L 186 215.5 L 185 215.5 L 178 186.5 L 178 181.5 Q 174 171 173 157.5 L 171 152.5 L 171.5 149 Z "></path><path fill="rgb(0,0,0)" stroke="rgb(0,0,0)" stroke-width="1" opacity="0.16470588235294117" d="M 204.5 155 L 210 175.5 L 218 217.5 L 217 217.5 L 210 181.5 L 205 163.5 L 204.5 155 Z "></path><path fill="rgb(0,0,0)" stroke="rgb(0,0,0)" stroke-width="1" opacity="0.16470588235294117" d="M 528.5 158 L 529 160.5 L 528 160.5 L 528.5 158 Z "></path><path fill="rgb(0,0,0)" stroke="rgb(0,0,0)" stroke-width="1" opacity="0.16470588235294117" d="M 527.5 162 L 528 164.5 L 523 178.5 L 522 185.5 L 490 297.5 L 486.5 305 L 237.5 305 L 237 303.5 L 234 294.5 L 222 236.5 L 223 236.5 L 237 302.5 L 238.5 304 L 486.5 304 L 487 300.5 L 490 293.5 L 508 227.5 L 511 220.5 L 513 209.5 L 527.5 162 Z "></path><path fill="rgb(0,0,0)" stroke="rgb(0,0,0)" stroke-width="1" opacity="0.16470588235294117" d="M 186.5 217 L 207 309 Q 195.2 313.4 188 323.5 L 181 337.5 L 180 342.5 L 180 358.5 L 187 375.5 L 193.5 383 Q 199.9 389.6 209.5 393 Q 215.8 395.8 225 395.5 L 215.5 396 Q 198.3 391.7 189 379.5 L 181 366.5 L 179 359.5 L 178 346.5 L 180 336.5 L 183 329.5 Q 188.3 319.8 196.5 313 L 206 307.5 L 189 234.5 L 186.5 217 Z "></path><path fill="rgb(0,0,0)" stroke="rgb(0,0,0)" stroke-width="1" opacity="0.16470588235294117" d="M 218.5 219 L 219 221.5 L 218 221.5 L 218.5 219 Z "></path><path fill="rgb(0,0,0)" stroke="rgb(0,0,0)" stroke-width="1" opacity="0.16470588235294117" d="M 219.5 223 L 220 225.5 L 219 225.5 L 219.5 223 Z "></path><path fill="rgb(0,0,0)" stroke="rgb(0,0,0)" stroke-width="1" opacity="0.16470588235294117" d="M 220.5 228 L 221 230.5 L 220 230.5 L 220.5 228 Z "></path><path fill="rgb(0,0,0)" stroke="rgb(0,0,0)" stroke-width="1" opacity="0.16470588235294117" d="M 221.5 232 L 222 234.5 L 221 234.5 L 221.5 232 Z "></path><path fill="rgb(0,0,0)" stroke="rgb(0,0,0)" stroke-width="1" opacity="0.16470588235294117" d="M 527.5 274 L 528 276.5 L 526.5 280 L 526 277.5 L 527.5 274 Z "></path><path fill="rgb(0,0,0)" stroke="rgb(0,0,0)" stroke-width="1" opacity="0.16470588235294117" d="M 525.5 281 L 526 283.5 L 515 323.5 L 508.5 333 L 502.5 336 L 222.5 336 L 214 340 L 211 346.5 L 211 353.5 L 215.5 361 L 221.5 364 L 501.5 364 Q 509.4 366.1 513 372.5 Q 515.9 376.1 515 383.5 Q 513.2 390.7 507.5 394 Q 505.2 396.7 499.5 396 L 499.5 395 L 503.5 395 L 511 389.5 Q 514.5 386 514 378.5 Q 512.9 371.1 507.5 368 L 499.5 365 L 220.5 365 Q 213.6 363.4 211 357.5 L 210 345.5 L 216.5 337 L 221.5 335 L 500.5 335 Q 508.6 333.6 512 327.5 L 525.5 281 Z "></path><path fill="rgb(0,0,0)" stroke="rgb(0,0,0)" stroke-width="1" opacity="0.16470588235294117" d="M 242.5 396 L 246 396.5 Q 228 400.5 219 413.5 L 211 429.5 L 210 446.5 Q 213.4 467.1 227.5 477 L 240.5 484 L 248.5 486 L 261.5 486 Q 281.6 481.6 292 467.5 L 297 458.5 L 300 447.5 L 300 434.5 Q 296.1 413.9 281.5 404 Q 274.4 398.6 264 396.5 L 267.5 396 Q 282.4 400.6 291 411.5 L 300 429.5 Q 302.5 437 301 448.5 Q 297.6 465.6 286.5 475 L 273.5 484 L 262.5 487 L 247.5 487 Q 231.2 483.8 222 473.5 Q 213.6 465.4 210 452.5 Q 207.4 444.6 209 432.5 L 216 415.5 L 224.5 406 L 229.5 402 L 242.5 396 Z "></path><path fill="rgb(0,0,0)" stroke="rgb(0,0,0)" stroke-width="1" opacity="0.16470588235294117" d="M 456.5 396 L 460 396.5 L 450.5 399 L 435 410.5 L 429.5 418 L 430 416.5 Q 433.3 408.3 440.5 404 L 456.5 396 Z "></path><path fill="rgb(0,0,0)" stroke="rgb(0,0,0)" stroke-width="1" opacity="0.16470588235294117" d="M 477.5 396 L 486.5 398 L 502 408 L 508 416.5 L 511 423.5 L 510 423.5 L 507 416.5 L 497.5 406 L 488.5 400 L 477.5 397 L 477.5 396 Z "></path><path fill="rgb(0,0,0)" stroke="rgb(0,0,0)" stroke-width="1" opacity="0.16470588235294117" d="M 428.5 419 L 428 420.5 L 424 431.5 L 423 442.5 Q 425.8 444.3 424 450.5 L 427 459.5 L 438.5 475 Q 446.2 481.8 457.5 485 L 474.5 486 Q 492.4 482.9 502 471.5 L 510.5 458 L 511 459.5 Q 505.4 471.4 495.5 479 Q 484.1 488.6 461.5 487 Q 442.4 483.6 433 470.5 Q 426.3 462.7 423 451.5 L 422 435.5 L 425 424.5 L 428.5 419 Z "></path><path fill="rgb(0,0,0)" stroke="rgb(0,0,0)" stroke-width="1" opacity="0.16470588235294117" d="M 511.5 425 L 515 435.5 L 515 446.5 L 511.5 457 L 511 455.5 L 513 450.5 L 514 438.5 L 511.5 425 Z "></path><path fill="rgb(0,0,0)" stroke="rgb(0,0,0)" stroke-width="1" opacity="0.16470588235294117" d="M 251.5 426 Q 264 425 268 432.5 Q 271.3 436.2 270 444.5 L 269 444.5 Q 270.6 434.4 265.5 431 L 258.5 427 L 251.5 427 L 243 433.5 Q 239.8 436.8 241 444.5 L 248.5 454 L 258.5 455 L 267 449.5 L 268.5 446 L 269 447.5 L 263.5 454 Q 259.5 457.5 250.5 456 L 243 450.5 Q 238.8 446.7 240 437.5 Q 241.5 431 246.5 428 L 251.5 426 Z "></path><path fill="rgb(0,0,0)" stroke="rgb(0,0,0)" stroke-width="1" opacity="0.16470588235294117" d="M 464.5 426 L 472.5 426 L 480 430.5 L 484 438.5 L 484 443.5 L 480 452 L 472.5 456 L 464.5 456 L 455 448.5 L 453 439.5 L 457 430 L 464.5 426 Z M 466 427 L 461 429 Q 455 433 454 441 L 457 450 Q 460 454 466 455 Q 473 456 477 453 Q 481 450 483 444 Q 484 437 481 434 Q 477 426 466 427 Z "></path><path fill="rgb(0,0,0)" stroke="rgb(0,0,0)" stroke-width="1" opacity="0" d="M 0 0 L 640 0 L 640 500 L 0 500 L 0 0 Z M 70 32 L 65 34 L 58 44 Q 57 52 60 57 L 69 63 L 151 63 L 152 65 L 154 78 L 157 86 L 163 119 L 167 131 L 175 172 L 177 177 L 178 187 L 186 217 L 196 267 L 206 308 L 197 313 Q 188 320 183 330 L 180 337 L 178 347 L 179 360 L 181 367 L 189 380 Q 197 389 209 394 L 216 396 L 242 397 Q 231 399 225 406 L 216 416 L 209 433 Q 207 445 210 453 Q 214 465 222 474 Q 231 484 248 487 L 263 487 L 274 484 L 287 475 Q 298 466 301 449 Q 303 437 300 430 L 291 412 Q 283 401 269 397 L 269 396 L 456 397 L 451 398 L 441 404 Q 426 415 422 436 L 423 452 Q 426 463 433 471 Q 442 484 462 487 Q 484 489 496 479 Q 511 468 515 447 L 515 436 L 513 428 Q 509 416 502 408 L 491 400 L 481 397 L 504 396 L 508 394 Q 513 391 515 384 Q 516 376 513 373 Q 509 366 502 364 L 222 364 L 216 361 L 211 354 L 211 347 L 214 340 L 223 336 L 503 336 L 509 333 Q 514 328 516 321 L 526 281 L 533 261 L 534 254 L 537 247 L 538 240 L 541 233 L 542 226 L 549 205 L 553 187 L 575 112 Q 576 104 573 100 L 564 92 L 192 92 L 188 83 L 181 46 L 178 39 L 169 32 L 70 32 Z "></path><path fill="rgb(0,0,0)" stroke="rgb(0,0,0)" stroke-width="1" opacity="0" d="M 198 124 L 538 124.5 L 487 304 L 238.5 304 L 237 302.5 L 231 270.5 L 220 227.5 L 210 175.5 L 204 154.5 L 198 124 Z "></path><path fill="rgb(0,0,0)" stroke="rgb(0,0,0)" stroke-width="1" opacity="0" d="M 251.5 427 L 258.5 427 L 267 432.5 Q 270.5 436.5 269 445.5 L 264.5 452 Q 260.7 456.2 251.5 455 Q 245.4 453.6 243 448.5 Q 239.8 445.2 241 437.5 L 247.5 429 L 251.5 427 Z "></path><path fill="rgb(0,0,0)" stroke="rgb(0,0,0)" stroke-width="1" opacity="0" d="M 465.5 427 Q 477.2 426.3 481 433.5 Q 483.7 436.8 483 443.5 Q 481.5 450 476.5 453 Q 472.9 455.9 465.5 455 Q 459.8 453.8 457 449.5 L 454 440.5 Q 455.2 432.7 460.5 429 L 465.5 427 Z "></path><path fill="rgb(0,0,0)" stroke="rgb(0,0,0)" stroke-width="1" opacity="0.9803921568627451" d="M 72.5 32 L 164.5 32 L 171.5 34 L 178 40.5 L 190 93 L 562.5 93 L 571 98.5 Q 575.2 102.3 574 111.5 L 514 322.5 Q 512.2 329.7 506.5 333 L 500.5 335 L 221.5 335 Q 215 336.5 212 341.5 Q 208.5 345.5 210 354.5 Q 211.6 361.4 217.5 364 L 220.5 365 L 499.5 365 Q 508 366.5 512 372.5 L 514 382.5 Q 512.9 389.9 507.5 393 L 498.5 396 L 477 396.5 Q 493.5 399.5 502 410.5 Q 513.7 421.3 514 443.5 L 512 454.5 L 508 463.5 L 497.5 476 L 479.5 485 L 462.5 486 Q 444.8 482.7 435 471.5 Q 423.9 460.6 423 439.5 L 426 424.5 Q 430.6 414.1 438.5 407 L 450.5 399 L 460 396.5 L 264.5 396 L 264.5 397 Q 283.1 400.9 292 414.5 L 299 429.5 L 300 447.5 Q 296.3 467.3 282.5 477 L 266.5 485 L 248.5 486 Q 228.7 482.3 219 468.5 L 211 452.5 L 210 435.5 Q 213.4 414.9 227.5 405 Q 234.8 398.8 246 396.5 L 225.5 396 L 224.5 395 L 212.5 394 Q 199.8 390.2 192 381.5 Q 185.4 375.1 182 365.5 L 180 358.5 L 180 342.5 Q 184 323.5 197.5 314 L 207 309 L 199 270.5 L 196 261.5 L 192 238.5 L 184 207.5 L 175 161.5 L 169 140.5 L 156 76.5 L 153 67.5 L 153 63.5 L 151.5 62 L 69.5 62 L 61 55.5 Q 57.7 51.8 59 43.5 L 66.5 34 L 72.5 32 Z M 197 123 L 198 133 L 201 142 L 216 214 L 224 245 L 234 295 L 237 304 L 238 305 L 487 305 L 490 298 L 539 126 L 539 123 L 197 123 Z M 252 426 L 247 428 Q 242 431 240 438 Q 239 447 243 451 L 251 456 Q 260 458 264 454 Q 268 451 270 445 Q 271 436 268 433 Q 264 425 252 426 Z M 465 426 L 457 430 L 453 440 L 455 449 L 465 456 L 473 456 L 480 452 L 484 444 L 484 439 L 480 431 L 473 426 L 465 426 Z "></path></svg>