<svg width="640" height="500" version="1.1" xmlns="http://www.w3.org/2000/svg" desc="Created with imagetracer.js version 1.2.6"><path fill="rgb(0,0,0)" stroke="rgb(0,0,0)" stroke-width="1" opacity="0" d="M 0 0 L 640 0 L 640 500 L 0 500 L 0 0 Z M 143 15 L 143 495 L 507 495 L 507 15 L 143 15 Z "></path><path fill="rgb(21,193,217)" stroke="rgb(21,193,217)" stroke-width="1" opacity="1" d="M 314.5 74 L 331.5 75 L 337.5 79 L 343.5 80 L 348.5 84 L 354.5 85 L 373.5 95 L 380.5 96 Q 383.6 100.9 391.5 101 L 396.5 105 Q 405.4 106.1 410.5 111 L 417.5 112 L 421.5 116 Q 430.6 116.4 434.5 122 L 441.5 123 Q 445.1 127.4 452.5 128 L 456 131.5 L 460 138.5 L 460 379.5 L 456.5 384 L 454.5 385 L 442.5 385 L 439 381.5 L 439 148.5 L 436.5 144 L 430.5 139 L 423.5 138 Q 419.1 132.9 410.5 132 L 405.5 128 L 399.5 127 L 393.5 123 Q 387.3 123.7 385 120.5 L 383.5 118 L 375.5 117 L 368.5 112 L 365.5 112 L 345.5 102 L 339.5 101 L 333.5 97 L 326.5 95 L 317.5 95 L 307.5 97 L 300.5 101 L 291.5 102 L 285 107.5 L 286.5 111 L 291.5 112 L 296.5 116 L 302.5 117 L 322.5 127 L 328.5 128 L 331.5 131 L 339.5 133 L 346.5 138 L 350.5 138 L 358.5 143 L 362.5 143 L 370.5 148 L 376.5 149 L 381.5 153 Q 390.6 153.4 394.5 159 L 399.5 159 L 407 165.5 L 408 167.5 L 408 433.5 L 406 439 L 399.5 441 L 394.5 440 L 388.5 436 L 381.5 435 L 377.5 431 L 371.5 430 L 367.5 426 Q 359.2 425.2 355.5 420 L 349.5 419 L 346.5 416 L 339.5 414 L 334.5 410 L 329.5 409 L 315.5 402 L 312.5 399 L 294.5 392 L 289.5 388 L 283.5 387 L 280.5 384 L 254 371 L 253 368.5 L 253 102.5 L 255 97 L 268.5 91 L 275.5 90 L 282.5 86 L 292.5 84 L 296.5 81 L 306.5 79 L 314.5 74 Z "></path><path fill="rgb(254,254,254)" stroke="rgb(254,254,254)" stroke-width="1" opacity="1" d="M 143 15 L 507 15 L 507 495 L 143 495 L 143 15 Z M 315 74 L 307 79 L 297 81 L 293 84 L 283 86 L 276 90 L 269 91 L 255 97 L 253 103 L 253 369 L 254 371 L 281 384 L 284 387 L 290 388 L 295 392 L 313 399 L 316 402 L 330 409 L 335 410 L 340 414 L 347 416 L 350 419 L 356 420 Q 359 425 368 426 L 372 430 L 378 431 L 382 435 L 389 436 L 395 440 L 400 441 L 406 439 L 408 434 L 408 168 L 407 166 L 400 159 L 395 159 Q 391 153 382 153 L 377 149 L 371 148 L 363 143 L 359 143 L 351 138 L 347 138 L 340 133 L 332 131 L 329 128 L 323 127 L 303 117 L 297 116 L 292 112 L 287 111 L 285 108 L 292 102 L 301 101 L 308 97 L 318 95 L 327 95 L 334 97 L 340 101 L 346 102 L 366 112 L 369 112 L 376 117 L 384 118 L 385 121 Q 387 124 394 123 L 400 127 L 406 128 L 411 132 Q 419 133 424 138 L 431 139 L 437 144 L 439 149 L 439 382 L 443 385 L 455 385 L 457 384 L 460 380 L 460 139 L 456 132 L 453 128 Q 445 127 442 123 L 435 122 Q 431 116 422 116 L 418 112 L 411 111 Q 405 106 397 105 L 392 101 Q 384 101 381 96 L 374 95 L 355 85 L 349 84 L 344 80 L 338 79 L 332 75 L 315 74 Z "></path></svg>