<svg width="209" height="369" viewBox="0 0 209 369" fill="none" xmlns="http://www.w3.org/2000/svg">
<path d="M62.5 1L79.5 2L85.5 6L91.5 7L96.5 11L102.5 12L121.5 22L128.5 23C130.567 26.2667 134.233 27.9333 139.5 28L144.5 32C150.433 32.7333 155.1 34.7333 158.5 38L165.5 39L169.5 43C175.567 43.2667 179.9 45.2667 182.5 49L189.5 50C191.9 52.9333 195.567 54.6 200.5 55L204 58.5L208 65.5V306.5L204.5 311L202.5 312H190.5L187 308.5V75.5L184.5 71L178.5 66L171.5 65C168.567 61.6 164.233 59.6 158.5 59L153.5 55L147.5 54L141.5 50C137.367 50.4667 134.533 49.6333 133 47.5L131.5 45L123.5 44L116.5 39H113.5L93.5 29L87.5 28L81.5 24L74.5 22H65.5L55.5 24L48.5 28L39.5 29L33 34.5L34.5 38L39.5 39L44.5 43L50.5 44L70.5 54L76.5 55L79.5 58L87.5 60L94.5 65H98.5L106.5 70H110.5L118.5 75L124.5 76L129.5 80C135.567 80.2667 139.9 82.2667 142.5 86H147.5L155 92.5L156 94.5V360.5L154 366L147.5 368L142.5 367L136.5 363L129.5 362L125.5 358L119.5 357L115.5 353C109.967 352.467 105.967 350.467 103.5 347L97.5 346L94.5 343L87.5 341L82.5 337L77.5 336L63.5 329L60.5 326L42.5 319L37.5 315L31.5 314L28.5 311L2 298L1 295.5V29.5L3 24L16.5 18L23.5 17L30.5 13L40.5 11L44.5 8L54.5 6L62.5 1Z" fill="#15C1D9" stroke="#15C1D9"/>
</svg>
